<svg width="24" height="24" viewBox="0 0 24 24" fill="none" xmlns="http://www.w3.org/2000/svg">
<path fill-rule="evenodd" clip-rule="evenodd" d="M0 12C0 5.37225 5.37225 0 12 0C18.6278 0 24 5.37225 24 12C24 18.627 18.6278 24 12 24C5.37225 24 0 18.627 0 12ZM18.22 12.6038V17.2066L15.5522 17.2073V12.9121C15.5522 11.8328 15.166 11.0971 14.2 11.0971C13.4627 11.0971 13.024 11.5936 12.8312 12.0728C12.7607 12.2438 12.7435 12.4838 12.7435 12.7231V17.2066H10.075C10.075 17.2066 10.1102 9.93234 10.075 9.17859H12.7435V10.3163C13.0967 9.76959 13.7312 8.99034 15.148 8.99034C16.9037 8.99034 18.22 10.1378 18.22 12.6038ZM8.77298 6.69534C8.77298 7.46559 8.19323 8.08284 7.26323 8.08284H7.24673C6.35048 8.08284 5.77148 7.46634 5.77148 6.69534C5.77148 5.90784 6.36773 5.30859 7.28048 5.30859C8.19323 5.30859 8.75573 5.90784 8.77298 6.69534ZM8.59748 9.17859V17.2066H5.92973V9.17859H8.59748Z" fill="#EEEEEE"/>
</svg>
