<svg width="14" height="21" viewBox="0 0 14 21" fill="none" xmlns="http://www.w3.org/2000/svg">
<path d="M0.427557 16V5.09091H2.55114V16H0.427557ZM1.5 3.40767C1.13068 3.40767 0.813447 3.28456 0.548295 3.03835C0.287879 2.7874 0.15767 2.48911 0.15767 2.14347C0.15767 1.79309 0.287879 1.49479 0.548295 1.24858C0.813447 0.997632 1.13068 0.872159 1.5 0.872159C1.86932 0.872159 2.18419 0.997632 2.4446 1.24858C2.70975 1.49479 2.84233 1.79309 2.84233 2.14347C2.84233 2.48911 2.70975 2.7874 2.4446 3.03835C2.18419 3.28456 1.86932 3.40767 1.5 3.40767ZM10.701 5.09091H12.8246V16.7102C12.8246 17.4394 12.692 18.0549 12.4268 18.5568C12.1664 19.0587 11.7782 19.4399 11.2621 19.7003C10.7507 19.9607 10.1186 20.0909 9.36577 20.0909C9.29001 20.0909 9.21899 20.0909 9.1527 20.0909C9.08168 20.0909 9.00829 20.0885 8.93253 20.0838V18.2585C8.99882 18.2585 9.058 18.2585 9.11009 18.2585C9.15743 18.2585 9.21188 18.2585 9.27344 18.2585C9.77533 18.2585 10.1375 18.1236 10.3601 17.8537C10.5874 17.5885 10.701 17.2027 10.701 16.696V5.09091ZM11.7521 3.40767C11.3828 3.40767 11.0656 3.28456 10.8004 3.03835C10.54 2.7874 10.4098 2.48911 10.4098 2.14347C10.4098 1.79309 10.54 1.49479 10.8004 1.24858C11.0656 0.997632 11.3828 0.872159 11.7521 0.872159C12.1214 0.872159 12.4363 0.997632 12.6967 1.24858C12.9619 1.49479 13.0945 1.79309 13.0945 2.14347C13.0945 2.48911 12.9619 2.7874 12.6967 3.03835C12.4363 3.28456 12.1214 3.40767 11.7521 3.40767Z" fill="#2B2B2B"/>
</svg>
